<svg xmlns="http://www.w3.org/2000/svg" xmlns:xlink="http://www.w3.org/1999/xlink" viewBox="0 0 134.549 29.986" overflow="visible">
  <g>
    <path d="M 119.326 26.005 C 125.504 26.005 130.458 21.076 130.458 14.979 C 130.458 8.883 125.504 3.995 119.326 3.995 C 113.147 3.995 108.193 8.924 108.193 14.979 C 108.207 21.021 113.203 26.005 119.326 26.005 Z M 104.158 0 L 134.549 0 L 134.549 29.986 L 104.158 29.986 Z" fill="rgb(0,0,0)"></path>
    <path d="M 64.832 19.524 L 64.832 29.986 L 34.441 29.986 L 34.441 0 L 64.818 0 L 64.818 15.405 L 38.476 15.405 C 38.699 21.281 43.611 26.005 49.609 26.005 C 54.131 26.005 58 23.341 59.781 19.524 Z M 38.963 11.712 L 60.185 11.712 C 58.626 6.604 54.451 3.995 49.623 3.995 C 44.794 3.995 40.299 6.783 38.963 11.712 Z" fill="rgb(0,0,0)"></path>
    <path d="M 30.391 0 L 0 0 L 0 29.986 L 30.391 29.986 L 30.391 19.524 L 25.354 19.524 C 23.615 23.341 19.704 26.005 15.224 26.005 C 9.045 26.005 4.049 21.034 4.049 14.979 C 4.049 8.924 9.045 3.995 15.224 3.995 C 19.788 3.995 23.698 6.741 25.438 10.641 L 30.391 10.641 Z M 100.387 19.524 L 95.349 19.524 C 93.832 23.465 89.741 25.963 85.093 25.963 C 79.096 25.963 74.044 21.68 74.044 14.979 L 74.044 0 L 68.91 0 L 68.91 29.986 L 100.387 29.986 Z" fill="rgb(0,0,0)"></path>
  </g>
</svg>