<svg viewBox="0 0 181 69" fill="none" xmlns="http://www.w3.org/2000/svg" class="exion-logo"><g filter="url(#filter0_i_471_617)"><circle cx="34.1958" cy="34.1958" r="34.1958" fill="white"></circle></g><rect width="19.2158" height="6.92392" rx="3.46196" transform="matrix(0.889636 -0.456671 0.496082 0.868276 20.6797 37.27)" fill="#00C48F"></rect><rect width="26.4523" height="6.92392" rx="3.46196" transform="matrix(0.889636 -0.456671 0.496082 0.868276 26.5762 49.0781)" fill="#00C48F"></rect><rect width="26.4538" height="6.92392" rx="3.46196" transform="matrix(0.889636 -0.456671 0.496082 0.868276 14.8486 25.5791)" fill="#00C48F"></rect><path d="M89.774 48V21.4H106.532V25.124H93.878V32.762H105.468V36.486H93.878V44.276H106.722V48H89.774ZM109.519 48L116.663 38.538L109.671 29.266H114.269L119.171 35.992H119.779L124.681 29.266H129.317L122.287 38.538L129.431 48H124.757L119.779 41.122H119.171L114.193 48H109.519ZM133.64 48V29.266H137.554V48H133.64ZM135.616 26.72C134.856 26.72 134.21 26.4793 133.678 25.998C133.171 25.4913 132.918 24.8453 132.918 24.06C132.918 23.2747 133.171 22.6413 133.678 22.16C134.21 21.6533 134.856 21.4 135.616 21.4C136.401 21.4 137.047 21.6533 137.554 22.16C138.061 22.6413 138.314 23.2747 138.314 24.06C138.314 24.8453 138.061 25.4913 137.554 25.998C137.047 26.4793 136.401 26.72 135.616 26.72ZM152.141 48.532C150.266 48.532 148.594 48.152 147.125 47.392C145.681 46.6067 144.541 45.492 143.705 44.048C142.869 42.604 142.451 40.894 142.451 38.918V38.348C142.451 36.372 142.869 34.6747 143.705 33.256C144.541 31.812 145.681 30.6973 147.125 29.912C148.594 29.1267 150.266 28.734 152.141 28.734C154.015 28.734 155.687 29.1267 157.157 29.912C158.626 30.6973 159.779 31.812 160.615 33.256C161.451 34.6747 161.869 36.372 161.869 38.348V38.918C161.869 40.894 161.451 42.604 160.615 44.048C159.779 45.492 158.626 46.6067 157.157 47.392C155.687 48.152 154.015 48.532 152.141 48.532ZM152.141 45.036C153.863 45.036 155.257 44.4913 156.321 43.402C157.41 42.2873 157.955 40.7547 157.955 38.804V38.462C157.955 36.5113 157.423 34.9913 156.359 33.902C155.295 32.7873 153.889 32.23 152.141 32.23C150.443 32.23 149.05 32.7873 147.961 33.902C146.897 34.9913 146.365 36.5113 146.365 38.462V38.804C146.365 40.7547 146.897 42.2873 147.961 43.402C149.05 44.4913 150.443 45.036 152.141 45.036ZM166.742 48V29.266H170.58V32.078H171.188C171.542 31.318 172.176 30.6087 173.088 29.95C174 29.2913 175.355 28.962 177.154 28.962C178.572 28.962 179.826 29.2787 180.916 29.912C182.03 30.5453 182.904 31.4447 183.538 32.61C184.171 33.75 184.488 35.1307 184.488 36.752V48H180.574V37.056C180.574 35.4347 180.168 34.244 179.358 33.484C178.547 32.6987 177.432 32.306 176.014 32.306C174.392 32.306 173.088 32.838 172.1 33.902C171.137 34.966 170.656 36.5113 170.656 38.538V48H166.742Z" fill="white"></path><defs><filter id="filter0_i_471_617" x="0" y="0" width="70.3916" height="70.3916" filterUnits="userSpaceOnUse" color-interpolation-filters="sRGB"><feFlood flood-opacity="0" result="BackgroundImageFix"></feFlood><feBlend mode="normal" in="SourceGraphic" in2="BackgroundImageFix" result="shape"></feBlend><feColorMatrix in="SourceAlpha" type="matrix" values="0 0 0 0 0 0 0 0 0 0 0 0 0 0 0 0 0 0 127 0" result="hardAlpha"></feColorMatrix><feMorphology radius="2" operator="erode" in="SourceAlpha" result="effect1_innerShadow_471_617"></feMorphology><feOffset dx="2" dy="2"></feOffset><feGaussianBlur stdDeviation="1.5"></feGaussianBlur><feComposite in2="hardAlpha" operator="arithmetic" k2="-1" k3="1"></feComposite><feColorMatrix type="matrix" values="0 0 0 0 0.675 0 0 0 0 0.675 0 0 0 0 0.675 0 0 0 0.25 0"></feColorMatrix><feBlend mode="normal" in2="shape" result="effect1_innerShadow_471_617"></feBlend></filter></defs></svg>