<svg width="105" height="114" viewBox="0 0 105 114" fill="none" xmlns="http://www.w3.org/2000/svg">
<path d="M63.8034 29.4661C68.4653 23.1662 73.1662 17.0705 78.1808 11.0388C84.4307 3.52305 90.6658 0.0844567 100.466 0C101.642 0.265435 102.001 0.252432 103.164 0.250575L103.488 11.5603C97.9784 11.7218 91.863 12.5441 88.2063 17.0955C80.0017 27.3083 71.4278 37.9869 63.8544 48.648C62.4021 46.556 54.3409 36.359 53.8535 34.9845C55.6875 33.4216 56.6388 26.7978 56.8281 24.2437C56.9178 23.0335 56.6753 22.136 57.0765 20.9592C58.6236 22.3634 62.5808 27.6517 63.8034 29.4661Z" fill="#FF5E37"/>
<path d="M66.5228 69.3538L66.7001 69.544C68.366 71.3538 71.0761 75.1998 72.6298 77.276L81.4812 88.9264C86.7715 95.9678 89.1957 100.736 98.9288 101.31L102.372 101.574C103.104 101.952 103.531 101.982 103.768 102.654C104.635 105.11 102.268 111.128 103.294 112.993C102.754 113.18 102.212 113.373 101.669 113.549C100.456 113.575 99.6305 113.496 98.4276 113.387C97.2601 113.49 96.099 113.305 94.9463 113.203C83.7458 112.23 77.8959 102.722 71.5866 94.7446C69.3081 91.8629 66.0884 88.1681 64.2684 85.033C62.4022 87.034 60.8002 89.9556 58.8042 92.1376C58.0963 89.9166 58.9479 86.3221 59.917 84.2506C63.7384 81.0515 64.7111 80.2153 66.1534 75.4319C66.3604 73.146 66.469 71.6527 66.5228 69.3538Z" fill="#FF5E37"/>
<path d="M100.623 101.34C102.045 101.613 103.571 101.446 105 101.438C104.905 104.456 104.928 110.181 104.935 113.359C103.492 113.535 101.946 113.626 100.502 113.47C100.595 113.292 100.688 113.097 100.781 112.907C100.605 111.018 101.012 104.922 100.863 102.434C100.822 101.754 100.749 101.724 100.623 101.34Z" fill="#FF5E37"/>
<path d="M42.5162 56.7493C43.9445 58.5832 48.983 64.9704 49.9635 66.9333C48.5193 67.5236 34.0549 89.5742 30.7864 91.6095C26.1442 94.5015 20.8847 89.2522 22.7239 84.027C24.452 79.1174 42.1166 59.09 42.5162 56.7493Z" fill="#FF5E37"/>
<path d="M15.0283 57.025C14.4957 56.4189 13.8992 55.7293 13.4186 55.0797C6.47484 45.7393 -0.954893 37.3447 0.675061 24.7393C2.6667 9.33663 16.5818 -1.59632 32.055 0.33133C45.064 1.95178 49.9784 11.5371 57.0736 20.9592C56.6723 22.136 56.9149 23.0335 56.8252 24.2437C56.6359 26.7978 55.6846 33.4216 53.8506 34.9845C49.3607 28.9519 42.331 18.3039 36.7667 13.8667C27.7913 6.7092 12.6715 15.0695 11.932 26.1324C10.62 38.0565 23.994 47.3505 28.8193 57.2765C24.712 63.0307 20.4564 68.5946 16.1211 74.1771C14.5961 76.2941 13.1087 78.4491 12.2153 80.9225C6.86892 95.7043 24.9368 109.531 37.4907 99.5206C38.5765 98.6547 39.9886 97.3145 40.8349 96.2258C46.0183 89.5603 51.7612 82.7453 56.6424 75.895C54.65 72.9446 52.231 69.6907 49.9632 66.9333C48.9827 64.9704 43.9442 58.5832 42.5159 56.7493C37.6526 50.0132 24.4268 34.5474 22.0419 28.0433C22.9792 24.3941 24.7008 20.7012 29.3674 21.6831C30.7769 21.9801 32.6789 24.5602 33.6818 25.6126C39.9437 33.4031 45.73 41.6835 51.6983 49.7097L61.1073 62.2325C62.7183 64.3411 65.0803 67.2182 66.5226 69.3538C66.4688 71.6527 66.3602 73.146 66.1532 75.4319C64.7109 80.2153 63.7383 81.0515 59.9168 84.2506C58.9477 86.3221 58.0962 89.9167 58.804 92.1376C50.4949 102.081 45.5094 112.559 30.8374 113.815C15.3649 115.309 1.47547 103.877 0.118007 88.3445C-0.853265 77.2305 4.29647 70.1853 10.9489 62.071C12.3074 60.4134 13.6397 58.677 15.0283 57.025Z" fill="#FF5E37"/>
<path d="M98.4861 22.6279C105.219 22.6418 105.661 28.1575 103.344 33.1738C101.357 37.4774 97.1264 42.1476 94.2585 46.0316C91.6895 49.512 88.5552 53.8453 85.6131 56.9553C89.3673 61.1967 101.396 76.6838 103.076 81.6102C103.796 83.7207 104.31 86.8075 103.225 88.8642C102.664 89.925 101.677 90.7231 100.503 90.996C98.9854 91.3496 97.7278 90.4503 96.5017 89.6976C93.0677 87.047 90.6064 83.0794 87.9362 79.7419C82.2088 72.5845 76.7821 63.9634 70.5879 57.3154L84.0817 39.8292C87.2373 35.7409 94.6529 25.0539 98.4861 22.6279Z" fill="#FF5E37"/>
</svg>
