<?xml version="1.0" encoding="UTF-8"?>
<svg id="Horizontal_logo" data-name="Horizontal logo" xmlns="http://www.w3.org/2000/svg" viewBox="0 0 1360.83 546.18">
  <defs>
    <style>
      .cls-1 {
        fill: #112122;
        stroke-width: 0px;
      }
    </style>
  </defs>
  <g>
    <path class="cls-1" d="M515.05,209.03h0c-7.14-4.16-15.04-6.27-23.48-6.27h-41.13v140.46h19.83v-48.71h21.31c8.43,0,16.33-2.07,23.46-6.16,7.12-4.08,12.86-9.7,17.07-16.71,4.22-7.03,6.37-14.73,6.37-22.91s-2.14-15.88-6.37-22.91c-4.21-7-9.95-12.65-17.06-16.8ZM491.56,275.41h-21.31v-53.15h21.31c4.83,0,9.38,1.21,13.52,3.58,4.16,2.39,7.5,5.64,9.92,9.67,2.41,4.02,3.63,8.46,3.63,13.22s-1.23,9.25-3.64,13.33c-2.42,4.09-5.75,7.38-9.91,9.76-4.15,2.38-8.7,3.58-13.52,3.58Z"/>
    <path class="cls-1" d="M620.02,243.93c-7.34-5.64-15.83-8.5-25.22-8.5-6.01,0-11.82,1.25-17.33,3.74l-.37.18c-6.76,3.19-12.32,8.06-16.5,14.5-4.19,6.44-6.31,13.66-6.31,21.47v67.9h19.62v-67.9c0-5.65,2.02-10.4,6.19-14.5,4.16-4.1,8.97-6.09,14.7-6.09,2.75,0,5.56.61,8.36,1.8l1.3.55,18.84-10.64-3.27-2.51Z"/>
    <path class="cls-1" d="M700.5,243.72c-8.37-4.83-17.59-7.28-27.39-7.28s-19.02,2.45-27.39,7.28c-8.35,4.82-15.06,11.39-19.95,19.54-4.91,8.17-7.39,17.28-7.39,27.07s2.49,18.72,7.39,26.96c4.89,8.22,11.61,14.84,19.96,19.66,8.36,4.83,17.58,7.28,27.39,7.28s18.74-2.38,26.96-7.07c8.2-4.67,14.84-11,19.73-18.79l1.51-2.41-17-9.65-1.43,2.26c-3.17,4.99-7.41,8.98-12.6,11.84-5.18,2.86-10.96,4.31-17.17,4.31-8.47,0-15.77-2.61-22.31-7.99-5.65-4.64-9.35-10.14-11.25-16.76h87.64l.23-2.5c.28-3.09.42-5.43.42-7.15,0-9.78-2.49-18.89-7.39-27.07-4.89-8.15-11.61-14.72-19.95-19.54ZM638.98,281.29c.48-3.94,2.02-7.61,4.65-11.16,3.29-4.42,7.65-7.95,12.98-10.52,10.85-5.21,22.61-5.09,33.06,0,5.26,2.56,9.6,6.1,12.89,10.52,2.64,3.55,4.17,7.22,4.65,11.16h-68.25Z"/>
    <polygon class="cls-1" points="743.67 256.55 804.82 256.55 743.67 325.64 743.67 343.21 832.73 343.21 832.73 323.91 771.77 323.91 832.73 254.83 832.73 237.05 743.67 237.05 743.67 256.55"/>
    <path class="cls-1" d="M926.55,243.72c-8.37-4.83-17.59-7.28-27.39-7.28s-19.02,2.45-27.39,7.28c-8.35,4.82-15.06,11.39-19.95,19.54-4.91,8.17-7.39,17.28-7.39,27.07s2.49,18.72,7.39,26.96c4.89,8.22,11.61,14.84,19.96,19.66,8.36,4.83,17.58,7.28,27.39,7.28s18.74-2.38,26.96-7.07c8.2-4.67,14.84-11,19.73-18.79l1.51-2.41-17-9.65-1.43,2.26c-3.17,4.99-7.41,8.98-12.6,11.84-5.18,2.86-10.96,4.31-17.17,4.31-8.47,0-15.77-2.61-22.31-7.99-5.65-4.64-9.35-10.14-11.25-16.76h87.64l.23-2.5c.28-3.09.42-5.43.42-7.15,0-9.78-2.49-18.89-7.39-27.07-4.89-8.15-11.61-14.72-19.95-19.54ZM865.04,281.29c.48-3.94,2.02-7.61,4.65-11.16,3.29-4.42,7.65-7.95,12.98-10.52,10.85-5.21,22.61-5.09,33.06,0,5.26,2.56,9.6,6.1,12.89,10.52,2.64,3.55,4.17,7.22,4.65,11.16h-68.25Z"/>
    <path class="cls-1" d="M1037.31,241.99h0c-6.66-3.82-14.04-5.75-21.92-5.75-5.58,0-10.91,1.07-15.85,3.17-2.92,1.24-5.64,2.84-8.13,4.78v-5.31h-19.62v104.34h19.62v-64.04c0-4.22,1.08-8.15,3.22-11.69,2.15-3.56,5.11-6.45,8.79-8.56,3.73-2.14,7.64-3.18,11.98-3.18s8.31,1.07,11.98,3.18c3.68,2.12,6.64,5,8.79,8.56,2.13,3.55,3.22,7.48,3.22,11.69v64.04h19.83v-64.04c0-7.77-2-15.03-5.95-21.59-3.94-6.53-9.3-11.78-15.94-15.59Z"/>
    <polygon class="cls-1" points="1111.96 202.75 1092.13 202.75 1092.13 236.24 1075.02 236.24 1075.02 255.54 1092.13 255.54 1092.13 343.21 1111.96 343.21 1111.96 255.54 1129.06 255.54 1129.06 236.24 1111.96 236.24 1111.96 202.75"/>
    <rect class="cls-1" x="1149" y="246.83" width="19.83" height="96.38"/>
    <path class="cls-1" d="M1159.02,231.59c3.23,0,6.05-1.16,8.37-3.45,2.32-2.29,3.5-5.12,3.5-8.43s-1.18-5.94-3.5-8.23h0c-2.32-2.29-5.14-3.45-8.37-3.45s-6.26,1.16-8.58,3.45c-2.32,2.28-3.5,5.05-3.5,8.23s1.18,6.15,3.49,8.43c2.32,2.29,5.21,3.45,8.58,3.45Z"/>
  </g>
  <g>
    <polygon class="cls-1" points="189.95 255.73 189.95 298.76 248.41 298.76 292.29 255.73 189.95 255.73"/>
    <polygon class="cls-1" points="189.79 356.23 225.06 321.65 189.95 321.65 189.79 356.23"/>
    <polygon class="cls-1" points="313.73 321.65 313.73 267.09 257.94 321.65 313.73 321.65"/>
    <path class="cls-1" d="M308.94,189.79h-104.37c-8.07,0-14.62,6.42-14.62,14.34v28.7h125.64l32.11-31.44c-11.14-7.26-24.47-11.53-38.76-11.6Z"/>
    <path class="cls-1" d="M337.08,242.73v78.92c24.96-10.82,42.5-35.34,42.5-63.71h0c0-16.03-5.43-30.6-14.79-42.39l-27.71,27.17Z"/>
  </g>
</svg>