<svg width="32" height="32" viewBox="0 0 32 32" fill="none" xmlns="http://www.w3.org/2000/svg"><rect width="32" height="32" rx="8.72727" fill="#036937"></rect><path d="M9.40297 21.5498L5.81836 10.4546H9.40297L11.8496 18.7049L14.3531 11.2512C14.8192 10.2991 16.9824 10.0894 17.6533 11.2512L20.2706 18.7049L21.7997 22.4546C20.6076 23.2503 18.6478 22.8084 18.1084 21.5498L16.0032 15.5755L14.0117 21.5498C13.1583 23.2568 10.1995 23.3706 9.40297 21.5498Z" fill="white"></path><path d="M27.3634 12.9581L26.7944 12.6167L23.0764 20.0529C22.9057 20.5081 22.4749 21.2087 22.5454 21.7273L21.3694 18.6304C21.0849 18.1183 20.9711 17.6063 21.2556 17.0373L24.2909 11.2512L23.665 10.8529L26.1686 10.4546L27.3634 12.9581Z" fill="white"></path></svg>